HIERARCHY
ROOT Hips
{
    OFFSET 0.000000 0.000000 0.000000
    CHANNELS 6 Xposition Yposition Zposition Zrotation Xrotation Yrotation
    JOINT Spine
    {
        OFFSET -0.000000 14.517291 0.000000
        CHANNELS 3 Zrotation Xrotation Yrotation
        JOINT Spine1
        {
            OFFSET -0.000000 37.558300 0.000000
            CHANNELS 3 Zrotation Xrotation Yrotation
            JOINT Neck
            {
                OFFSET -0.000000 37.404057 3.400369
                CHANNELS 3 Zrotation Xrotation Yrotation
                JOINT Head
                {
                    OFFSET -0.000000 24.785618 -3.540803
                    CHANNELS 3 Zrotation Xrotation Yrotation
                    End Site
                    {
                        OFFSET -0.000000 35.408028 0.000000
                    }
                }
            }
            JOINT LeftShoulder
            {
                OFFSET 6.992933 33.973492 -0.192664
                CHANNELS 3 Zrotation Xrotation Yrotation
                JOINT LeftArm
                {
                    OFFSET 21.527611 0.000000 0.000000
                    CHANNELS 3 Zrotation Xrotation Yrotation
                    JOINT LeftForeArm
                    {
                        OFFSET 56.353916 0.000000 0.000000
                        CHANNELS 3 Zrotation Xrotation Yrotation
                        JOINT LeftHand
                        {
                            OFFSET 47.774071 0.000000 0.000000
                            CHANNELS 3 Zrotation Xrotation Yrotation
                            End Site
                            {
                                OFFSET 26.556021 0.000000 0.000000
                            }
                        }
                    }
                }
            }
            JOINT RightShoulder
            {
                OFFSET -7.065357 33.973492 -0.192664
                CHANNELS 3 Zrotation Xrotation Yrotation
                JOINT RightArm
                {
                    OFFSET -21.527611 0.000000 0.000000
                    CHANNELS 3 Zrotation Xrotation Yrotation
                    JOINT RightForeArm
                    {
                        OFFSET -56.353916 0.000000 0.000000
                        CHANNELS 3 Zrotation Xrotation Yrotation
                        JOINT RightHand
                        {
                            OFFSET -47.774071 0.000000 0.000000
                            CHANNELS 3 Zrotation Xrotation Yrotation
                            End Site
                            {
                                OFFSET -26.556021 0.000000 0.000000
                            }
                        }
                    }
                }
            }
        }
    }
    JOINT LeftUpLeg
    {
        OFFSET 17.704014 0.000000 0.000000
        CHANNELS 3 Zrotation Xrotation Yrotation
        JOINT LeftLeg
        {
            OFFSET -0.000000 -81.181816 0.000000
            CHANNELS 3 Zrotation Xrotation Yrotation
            JOINT LeftFoot
            {
                OFFSET -0.000000 -62.821102 0.000000
                CHANNELS 3 Zrotation Xrotation Yrotation
                JOINT LeftToeBase
                {
                    OFFSET -0.000000 -11.507608 26.556021
                    CHANNELS 3 Zrotation Xrotation Yrotation
                    End Site
                    {
                        OFFSET -0.000000 0.000000 7.081605
                    }
                }
            }
        }
    }
    JOINT RightUpLeg
    {
        OFFSET -17.704014 0.000000 0.000000
        CHANNELS 3 Zrotation Xrotation Yrotation
        JOINT RightLeg
        {
            OFFSET -0.000000 -81.181816 0.000000
            CHANNELS 3 Zrotation Xrotation Yrotation
            JOINT RightFoot
            {
                OFFSET -0.000000 -62.821102 0.000000
                CHANNELS 3 Zrotation Xrotation Yrotation
                JOINT RightToeBase
                {
                    OFFSET -0.000000 -11.507608 26.556021
                    CHANNELS 3 Zrotation Xrotation Yrotation
                    End Site
                    {
                        OFFSET -0.000000 0.000000 7.081605
                    }
                }
            }
        }
    }
}
MOTION
Frames:    4
Frame Time:    0.008333
-15.611759    154.602173    -44.657623    -4.340647    -0.722344    -0.386463    1.269465    2.427818    9.882734    0.791369    1.840887    3.291829    -0.169898    2.979753    -7.902586    10.552740    -4.807961    -6.271814    -1.630406    6.024881    -6.261003    -44.274807    17.277943    -30.254873    0.219163    -29.437366    -126.676239    -7.003184    -28.501545    -10.349251    -2.005005    12.010129    2.733082    37.692616    9.228114    58.770653    -29.175358    -29.188328    56.386276    14.652103    -9.718709    35.252300    14.425086    -28.114992    -11.677973    -9.319459    15.445235    -14.321467    -10.159719    -1.868846    43.200729    0.000000    0.000000    0.000000    3.053053    5.592658    -17.962183    2.502652    25.369444    -4.529464    1.158300    -26.996233    -5.256916    0.000000    0.000000    0.000000    
-15.561004    154.601746    -44.578640    -4.321285    -0.732228    -0.479869    1.282410    2.438550    9.885379    0.768743    1.882985    3.292916    -0.165458    2.975440    -7.863238    10.553138    -4.820306    -6.230090    -1.637093    6.018257    -6.282168    -44.275982    17.242126    -30.228012    0.223027    -29.428419    -126.655403    -7.025497    -28.483164    -10.369606    -2.017404    12.006405    2.755889    37.680798    9.227731    58.797550    -29.148691    -29.187862    56.410992    14.648100    -9.726076    35.255363    14.384899    -28.104223    -11.943335    -9.283764    15.494780    -14.635628    -10.325900    -1.896815    43.073376    0.000000    0.000000    0.000000    2.995387    5.643396    -17.907938    2.502922    25.345110    -4.500543    1.169886    -27.001152    -5.207363    0.000000    0.000000    0.000000    
-15.513861    154.597946    -44.503159    -4.300330    -0.723835    -0.585963    1.283224    2.443628    9.900289    0.761658    1.905596    3.297884    -0.179806    2.958661    -7.822126    10.571092    -4.808075    -6.183184    -1.653949    6.028079    -6.302853    -44.259121    17.237885    -30.226927    0.283161    -29.509264    -126.605156    -7.130886    -28.449240    -10.413879    -2.033791    12.008117    2.764850    37.648136    9.248116    58.833797    -29.148849    -29.188925    56.421593    14.630908    -9.728285    35.261463    14.361141    -28.124590    -12.281896    -9.296102    15.560775    -14.848911    -10.539014    -2.001739    42.992508    0.000000    0.000000    0.000000    2.942273    5.661339    -17.844866    2.497733    25.340891    -4.451337    1.187018    -27.011414    -5.218763    0.000000    0.000000    0.000000    
-15.462828    154.598862    -44.435280    -4.285649    -0.712972    -0.678444    1.300347    2.452843    9.898511    0.739768    1.930265    3.297665    -0.200866    2.922860    -7.787873    10.599278    -4.769843    -6.143059    -1.668076    6.009306    -6.296588    -44.228214    17.278988    -30.239004    0.288779    -29.566626    -126.586700    -7.102496    -28.499794    -10.413294    -2.047289    12.017944    2.773052    37.605450    9.257939    58.887959    -29.148624    -29.202349    56.421928    14.664110    -9.731357    35.272346    14.333269    -28.155689    -12.647406    -9.298965    15.637555    -15.169052    -10.633124    -2.034859    42.928730    0.000000    0.000000    0.000000    2.898492    5.669122    -17.771555    2.497861    25.340446    -4.433250    1.188492    -27.008978    -5.231947    0.000000    0.000000    0.000000    
